<mxfile host="app.diagrams.net" agent="Mozilla/5.0 (X11; Ubuntu; Linux x86_64; rv:132.0) Gecko/20100101 Firefox/132.0" version="25.0.1">
  <diagram name="Page-1" id="vCdj5PMNbiW-dyhMuqKx">
    <mxGraphModel dx="1434" dy="753" grid="1" gridSize="10" guides="1" tooltips="1" connect="1" arrows="1" fold="1" page="1" pageScale="1" pageWidth="1100" pageHeight="850" math="1" shadow="0">
      <root>
        <mxCell id="0" />
        <mxCell id="1" parent="0" />
        <mxCell id="NDshzNdX3U-lBisqk44h-9" value="" style="rounded=0;whiteSpace=wrap;html=1;fontFamily=Courier New;" vertex="1" parent="1">
          <mxGeometry x="130" y="60" width="890" height="400" as="geometry" />
        </mxCell>
        <mxCell id="CFx7_840UiJ9a2tUSkKx-40" value="" style="rounded=0;whiteSpace=wrap;html=1;fontFamily=Courier New;" parent="1" vertex="1">
          <mxGeometry x="160" y="140" width="840" height="230" as="geometry" />
        </mxCell>
        <mxCell id="CFx7_840UiJ9a2tUSkKx-2" value="$$\text{Hash}(\text{address} || \text{processID} || s)$$" style="rounded=0;whiteSpace=wrap;html=1;fontSize=11;fontFamily=Courier New;fillColor=#ffe6cc;strokeColor=#d79b00;" parent="1" vertex="1">
          <mxGeometry x="200" y="190" width="200" height="40" as="geometry" />
        </mxCell>
        <mxCell id="CFx7_840UiJ9a2tUSkKx-8" value="" style="endArrow=classic;html=1;rounded=0;exitX=0.5;exitY=1;exitDx=0;exitDy=0;entryX=0.849;entryY=-0.009;entryDx=0;entryDy=0;entryPerimeter=0;fontSize=11;fontFamily=Courier New;" parent="1" source="CFx7_840UiJ9a2tUSkKx-17" target="CFx7_840UiJ9a2tUSkKx-2" edge="1">
          <mxGeometry width="50" height="50" relative="1" as="geometry">
            <mxPoint x="370" y="160" as="sourcePoint" />
            <mxPoint x="369.89" y="200" as="targetPoint" />
          </mxGeometry>
        </mxCell>
        <mxCell id="CFx7_840UiJ9a2tUSkKx-9" value="" style="endArrow=classic;html=1;rounded=0;exitX=0.5;exitY=1;exitDx=0;exitDy=0;entryX=0.5;entryY=0;entryDx=0;entryDy=0;fontSize=11;fontFamily=Courier New;" parent="1" source="CFx7_840UiJ9a2tUSkKx-16" target="CFx7_840UiJ9a2tUSkKx-2" edge="1">
          <mxGeometry width="50" height="50" relative="1" as="geometry">
            <mxPoint x="300" y="160" as="sourcePoint" />
            <mxPoint x="299.89" y="200" as="targetPoint" />
          </mxGeometry>
        </mxCell>
        <mxCell id="CFx7_840UiJ9a2tUSkKx-10" value="" style="endArrow=classic;html=1;rounded=0;exitX=0.5;exitY=1;exitDx=0;exitDy=0;entryX=0.149;entryY=-0.005;entryDx=0;entryDy=0;entryPerimeter=0;fontSize=11;fontFamily=Courier New;" parent="1" source="CFx7_840UiJ9a2tUSkKx-15" target="CFx7_840UiJ9a2tUSkKx-2" edge="1">
          <mxGeometry width="50" height="50" relative="1" as="geometry">
            <mxPoint x="229.89" y="150" as="sourcePoint" />
            <mxPoint x="229.89" y="200" as="targetPoint" />
          </mxGeometry>
        </mxCell>
        <mxCell id="CFx7_840UiJ9a2tUSkKx-11" value="" style="endArrow=classic;html=1;rounded=0;entryX=0.5;entryY=0;entryDx=0;entryDy=0;exitX=0.5;exitY=1;exitDx=0;exitDy=0;fontSize=11;fontFamily=Courier New;" parent="1" source="CFx7_840UiJ9a2tUSkKx-2" target="CFx7_840UiJ9a2tUSkKx-18" edge="1">
          <mxGeometry width="50" height="50" relative="1" as="geometry">
            <mxPoint x="299.58" y="230" as="sourcePoint" />
            <mxPoint x="300" y="710" as="targetPoint" />
          </mxGeometry>
        </mxCell>
        <mxCell id="CFx7_840UiJ9a2tUSkKx-15" value="&lt;div style=&quot;font-size: 11px;&quot;&gt;$$\text{address}$$&lt;/div&gt;" style="rounded=0;whiteSpace=wrap;html=1;fontSize=11;fillColor=#d5e8d4;strokeColor=#82b366;fontFamily=Courier New;" parent="1" vertex="1">
          <mxGeometry x="200" y="80" width="60" height="40" as="geometry" />
        </mxCell>
        <mxCell id="CFx7_840UiJ9a2tUSkKx-16" value="$$\text{processID}$$" style="rounded=0;whiteSpace=wrap;html=1;fontSize=11;fillColor=#d5e8d4;strokeColor=#82b366;fontFamily=Courier New;" parent="1" vertex="1">
          <mxGeometry x="270" y="80" width="60" height="40" as="geometry" />
        </mxCell>
        <mxCell id="CFx7_840UiJ9a2tUSkKx-17" value="$$s$$" style="rounded=0;whiteSpace=wrap;html=1;fontSize=11;fillColor=#f8cecc;strokeColor=#b85450;fontFamily=Courier New;" parent="1" vertex="1">
          <mxGeometry x="340" y="80" width="60" height="40" as="geometry" />
        </mxCell>
        <mxCell id="CFx7_840UiJ9a2tUSkKx-18" value="$$C$$" style="rounded=0;whiteSpace=wrap;html=1;fontSize=11;fillColor=#d5e8d4;strokeColor=#82b366;fontFamily=Courier New;" parent="1" vertex="1">
          <mxGeometry x="270" y="390" width="60" height="40" as="geometry" />
        </mxCell>
        <mxCell id="CFx7_840UiJ9a2tUSkKx-19" value="$$\text{protocolRulesCompliance}(\text{config}, m)$$" style="rounded=0;whiteSpace=wrap;html=1;fontSize=11;fillColor=#dae8fc;strokeColor=#6c8ebf;fontFamily=Courier New;" parent="1" vertex="1">
          <mxGeometry x="520" y="190" width="240" height="40" as="geometry" />
        </mxCell>
        <mxCell id="CFx7_840UiJ9a2tUSkKx-33" value="" style="edgeStyle=orthogonalEdgeStyle;rounded=0;orthogonalLoop=1;jettySize=auto;html=1;entryX=0.25;entryY=0;entryDx=0;entryDy=0;fontSize=11;fontFamily=Courier New;" parent="1" source="CFx7_840UiJ9a2tUSkKx-20" target="CFx7_840UiJ9a2tUSkKx-19" edge="1">
          <mxGeometry relative="1" as="geometry" />
        </mxCell>
        <mxCell id="CFx7_840UiJ9a2tUSkKx-20" value="config" style="rounded=0;whiteSpace=wrap;html=1;fontSize=11;fillColor=#d5e8d4;strokeColor=#82b366;fontFamily=Courier New;" parent="1" vertex="1">
          <mxGeometry x="550" y="80" width="60" height="40" as="geometry" />
        </mxCell>
        <mxCell id="CFx7_840UiJ9a2tUSkKx-26" value="" style="edgeStyle=orthogonalEdgeStyle;rounded=0;orthogonalLoop=1;jettySize=auto;html=1;entryX=0.165;entryY=-0.015;entryDx=0;entryDy=0;entryPerimeter=0;startArrow=oval;startFill=1;fontSize=11;fontFamily=Courier New;" parent="1" target="CFx7_840UiJ9a2tUSkKx-24" edge="1">
          <mxGeometry relative="1" as="geometry">
            <mxPoint x="700" y="160" as="sourcePoint" />
            <Array as="points">
              <mxPoint x="700" y="160" />
              <mxPoint x="810" y="160" />
            </Array>
          </mxGeometry>
        </mxCell>
        <mxCell id="CFx7_840UiJ9a2tUSkKx-32" value="" style="edgeStyle=orthogonalEdgeStyle;rounded=0;orthogonalLoop=1;jettySize=auto;html=1;entryX=0.75;entryY=0;entryDx=0;entryDy=0;fontSize=11;fontFamily=Courier New;" parent="1" source="CFx7_840UiJ9a2tUSkKx-21" target="CFx7_840UiJ9a2tUSkKx-19" edge="1">
          <mxGeometry relative="1" as="geometry" />
        </mxCell>
        <mxCell id="CFx7_840UiJ9a2tUSkKx-21" value="$$m$$" style="rounded=0;whiteSpace=wrap;html=1;fontSize=11;fillColor=#f8cecc;strokeColor=#b85450;fontFamily=Courier New;" parent="1" vertex="1">
          <mxGeometry x="670" y="80" width="60" height="40" as="geometry" />
        </mxCell>
        <mxCell id="CFx7_840UiJ9a2tUSkKx-28" value="" style="edgeStyle=orthogonalEdgeStyle;rounded=0;orthogonalLoop=1;jettySize=auto;html=1;entryX=0.445;entryY=0.014;entryDx=0;entryDy=0;entryPerimeter=0;fontSize=11;fontFamily=Courier New;" parent="1" source="CFx7_840UiJ9a2tUSkKx-22" target="CFx7_840UiJ9a2tUSkKx-24" edge="1">
          <mxGeometry relative="1" as="geometry" />
        </mxCell>
        <mxCell id="CFx7_840UiJ9a2tUSkKx-22" value="$$k$$" style="rounded=0;whiteSpace=wrap;html=1;fontSize=11;fillColor=#f8cecc;strokeColor=#b85450;fontFamily=Courier New;" parent="1" vertex="1">
          <mxGeometry x="830" y="80" width="60" height="40" as="geometry" />
        </mxCell>
        <mxCell id="CFx7_840UiJ9a2tUSkKx-29" value="" style="edgeStyle=orthogonalEdgeStyle;rounded=0;orthogonalLoop=1;jettySize=auto;html=1;entryX=0.833;entryY=0.003;entryDx=0;entryDy=0;entryPerimeter=0;fontSize=11;fontFamily=Courier New;" parent="1" source="CFx7_840UiJ9a2tUSkKx-23" target="CFx7_840UiJ9a2tUSkKx-24" edge="1">
          <mxGeometry relative="1" as="geometry" />
        </mxCell>
        <mxCell id="CFx7_840UiJ9a2tUSkKx-23" value="$$EPK$$" style="rounded=0;whiteSpace=wrap;html=1;fontSize=11;fillColor=#d5e8d4;strokeColor=#82b366;fontFamily=Courier New;" parent="1" vertex="1">
          <mxGeometry x="900" y="80" width="60" height="40" as="geometry" />
        </mxCell>
        <mxCell id="CFx7_840UiJ9a2tUSkKx-24" value="$$\text{Enc}_{EPK}(m, k)$$" style="rounded=0;whiteSpace=wrap;html=1;fontSize=11;fontFamily=Courier New;fillColor=#f5f5f5;fontColor=#333333;strokeColor=#666666;" parent="1" vertex="1">
          <mxGeometry x="780" y="190" width="180" height="40" as="geometry" />
        </mxCell>
        <mxCell id="CFx7_840UiJ9a2tUSkKx-25" value="$$\text{Hash}(C || s)$$" style="rounded=0;whiteSpace=wrap;html=1;fontSize=11;fontFamily=Courier New;fillColor=#ffe6cc;strokeColor=#d79b00;" parent="1" vertex="1">
          <mxGeometry x="400" y="310" width="120" height="40" as="geometry" />
        </mxCell>
        <mxCell id="CFx7_840UiJ9a2tUSkKx-30" value="" style="edgeStyle=orthogonalEdgeStyle;rounded=0;orthogonalLoop=1;jettySize=auto;html=1;entryX=0.75;entryY=0;entryDx=0;entryDy=0;startArrow=oval;startFill=1;fontSize=11;fontFamily=Courier New;" parent="1" target="CFx7_840UiJ9a2tUSkKx-25" edge="1">
          <mxGeometry relative="1" as="geometry">
            <mxPoint x="370" y="160" as="sourcePoint" />
            <mxPoint x="490" y="189" as="targetPoint" />
            <Array as="points">
              <mxPoint x="490" y="160" />
            </Array>
          </mxGeometry>
        </mxCell>
        <mxCell id="CFx7_840UiJ9a2tUSkKx-31" value="" style="edgeStyle=orthogonalEdgeStyle;rounded=0;orthogonalLoop=1;jettySize=auto;html=1;entryX=0.25;entryY=0;entryDx=0;entryDy=0;fontSize=11;fontFamily=Courier New;" parent="1" target="CFx7_840UiJ9a2tUSkKx-25" edge="1">
          <mxGeometry relative="1" as="geometry">
            <mxPoint x="300" y="270" as="sourcePoint" />
            <mxPoint x="830" y="209" as="targetPoint" />
            <Array as="points">
              <mxPoint x="430" y="270" />
            </Array>
          </mxGeometry>
        </mxCell>
        <mxCell id="CFx7_840UiJ9a2tUSkKx-34" value="" style="endArrow=classic;html=1;rounded=0;exitX=0.5;exitY=1;exitDx=0;exitDy=0;entryX=0.5;entryY=0;entryDx=0;entryDy=0;fontSize=11;fontFamily=Courier New;" parent="1" source="CFx7_840UiJ9a2tUSkKx-25" target="CFx7_840UiJ9a2tUSkKx-35" edge="1">
          <mxGeometry width="50" height="50" relative="1" as="geometry">
            <mxPoint x="460" y="390" as="sourcePoint" />
            <mxPoint x="460" y="710" as="targetPoint" />
          </mxGeometry>
        </mxCell>
        <mxCell id="CFx7_840UiJ9a2tUSkKx-35" value="$$N$$" style="rounded=0;whiteSpace=wrap;html=1;fontSize=11;fillColor=#d5e8d4;strokeColor=#82b366;fontFamily=Courier New;" parent="1" vertex="1">
          <mxGeometry x="430" y="390" width="60" height="40" as="geometry" />
        </mxCell>
        <mxCell id="CFx7_840UiJ9a2tUSkKx-36" value="" style="endArrow=classic;html=1;rounded=0;exitX=0.5;exitY=1;exitDx=0;exitDy=0;entryX=0.5;entryY=0;entryDx=0;entryDy=0;fontSize=11;fontFamily=Courier New;" parent="1" source="CFx7_840UiJ9a2tUSkKx-19" target="CFx7_840UiJ9a2tUSkKx-37" edge="1">
          <mxGeometry width="50" height="50" relative="1" as="geometry">
            <mxPoint x="639.58" y="230" as="sourcePoint" />
            <mxPoint x="639.58" y="390" as="targetPoint" />
          </mxGeometry>
        </mxCell>
        <mxCell id="CFx7_840UiJ9a2tUSkKx-37" value="$$\text{bool}$$" style="rounded=0;whiteSpace=wrap;html=1;fontSize=11;fillColor=#d5e8d4;strokeColor=#82b366;fontFamily=Courier New;" parent="1" vertex="1">
          <mxGeometry x="610" y="390" width="60" height="40" as="geometry" />
        </mxCell>
        <mxCell id="CFx7_840UiJ9a2tUSkKx-38" value="" style="endArrow=classic;html=1;rounded=0;exitX=0.5;exitY=1;exitDx=0;exitDy=0;entryX=0.5;entryY=0;entryDx=0;entryDy=0;fontSize=11;fontFamily=Courier New;" parent="1" source="CFx7_840UiJ9a2tUSkKx-24" target="CFx7_840UiJ9a2tUSkKx-39" edge="1">
          <mxGeometry width="50" height="50" relative="1" as="geometry">
            <mxPoint x="880" y="230" as="sourcePoint" />
            <mxPoint x="870" y="510" as="targetPoint" />
          </mxGeometry>
        </mxCell>
        <mxCell id="CFx7_840UiJ9a2tUSkKx-39" value="$$(C_1, C_2)$$" style="rounded=0;whiteSpace=wrap;html=1;fontSize=11;fillColor=#d5e8d4;strokeColor=#82b366;fontFamily=Courier New;" parent="1" vertex="1">
          <mxGeometry x="840" y="390" width="60" height="40" as="geometry" />
        </mxCell>
        <mxCell id="NDshzNdX3U-lBisqk44h-1" value="VOTE COMMITMENT + NULLIFICATION" style="text;html=1;align=center;verticalAlign=middle;whiteSpace=wrap;rounded=0;fontFamily=Courier New;fillColor=#ffe6cc;strokeColor=#d79b00;fontSize=11;" vertex="1" parent="1">
          <mxGeometry x="172.35" y="500.63" width="350" height="40" as="geometry" />
        </mxCell>
        <mxCell id="NDshzNdX3U-lBisqk44h-2" value="RULES COMPLIANCE" style="text;html=1;align=center;verticalAlign=middle;whiteSpace=wrap;rounded=0;fontFamily=Courier New;fillColor=#dae8fc;strokeColor=#6c8ebf;fontSize=11;" vertex="1" parent="1">
          <mxGeometry x="542.35" y="500.63" width="210" height="40" as="geometry" />
        </mxCell>
        <mxCell id="NDshzNdX3U-lBisqk44h-3" value="VOTE ENCRYPTION" style="text;html=1;align=center;verticalAlign=middle;whiteSpace=wrap;rounded=0;fontFamily=Courier New;fillColor=#f5f5f5;strokeColor=#666666;fontSize=11;fontColor=#333333;" vertex="1" parent="1">
          <mxGeometry x="767.66" y="500.63" width="220" height="40" as="geometry" />
        </mxCell>
        <mxCell id="NDshzNdX3U-lBisqk44h-4" value="" style="strokeWidth=1;html=1;shape=mxgraph.flowchart.annotation_2;align=left;labelPosition=right;pointerEvents=1;rotation=-90;" vertex="1" parent="1">
          <mxGeometry x="336.42" y="315.32" width="20" height="350.63" as="geometry" />
        </mxCell>
        <mxCell id="NDshzNdX3U-lBisqk44h-5" value="" style="strokeWidth=1;html=1;shape=mxgraph.flowchart.annotation_2;align=left;labelPosition=right;pointerEvents=1;rotation=-90;" vertex="1" parent="1">
          <mxGeometry x="637.51" y="384.24" width="20" height="212.8" as="geometry" />
        </mxCell>
        <mxCell id="NDshzNdX3U-lBisqk44h-6" value="" style="strokeWidth=1;html=1;shape=mxgraph.flowchart.annotation_2;align=left;labelPosition=right;pointerEvents=1;rotation=-90;" vertex="1" parent="1">
          <mxGeometry x="867.66" y="381.59" width="20" height="218.11" as="geometry" />
        </mxCell>
      </root>
    </mxGraphModel>
  </diagram>
</mxfile>
